<svg width="25" height="24" viewBox="0 0 25 24" fill="none" xmlns="http://www.w3.org/2000/svg">
<path d="M16.2736 12.9731L15.1506 11.85C15.3211 10.9603 15.0871 10.2013 14.4486 9.57309C13.8102 8.94489 13.0441 8.70386 12.1506 8.85001L11.0275 7.72696C11.2596 7.61926 11.4983 7.5417 11.7438 7.49426C11.9894 7.44683 12.2416 7.42311 12.5006 7.42311C13.6352 7.42311 14.5983 7.81895 15.39 8.61061C16.1816 9.40228 16.5775 10.3654 16.5775 11.5C16.5775 11.759 16.5553 12.0112 16.5111 12.2567C16.4669 12.5022 16.3877 12.741 16.2736 12.9731ZM19.4544 16.0846L18.3506 15.05C18.9839 14.5667 19.5506 14.0292 20.0506 13.4375C20.5506 12.8458 20.9672 12.2 21.3006 11.5C20.4672 9.81668 19.2631 8.47918 17.6881 7.48751C16.1131 6.49585 14.3839 6.00001 12.5006 6.00001C12.0172 6.00001 11.5464 6.03335 11.0881 6.10001C10.6297 6.16668 10.1672 6.26668 9.70056 6.40001L8.53521 5.23466C9.1711 4.98338 9.81949 4.79812 10.4804 4.67889C11.1413 4.55965 11.8147 4.50004 12.5006 4.50004C14.6493 4.50004 16.623 5.05837 18.4217 6.17504C20.2204 7.2917 21.6037 8.8026 22.5717 10.7077C22.6384 10.8346 22.6867 10.9625 22.7169 11.0914C22.747 11.2202 22.7621 11.3564 22.7621 11.5C22.7621 11.6436 22.7496 11.7798 22.7246 11.9087C22.6996 12.0375 22.6537 12.1654 22.5871 12.2923C22.2332 13.0449 21.789 13.7397 21.2544 14.3769C20.7198 15.0141 20.1198 15.5833 19.4544 16.0846ZM12.5006 18.5C10.3954 18.5 8.46597 17.9375 6.71214 16.8125C4.95829 15.6875 3.56405 14.2058 2.52944 12.3673C2.4461 12.2404 2.38521 12.1026 2.34676 11.9539C2.3083 11.8051 2.28906 11.6539 2.28906 11.5C2.28906 11.3462 2.30573 11.1974 2.33906 11.0539C2.3724 10.9103 2.43073 10.7699 2.51406 10.6327C2.88586 9.95323 3.30702 9.30611 3.77754 8.69136C4.24805 8.07661 4.78908 7.52565 5.40061 7.03849L3.14291 4.76539C3.00445 4.61667 2.93618 4.44007 2.93811 4.23559C2.94003 4.0311 3.01342 3.85643 3.15829 3.71156C3.30315 3.56669 3.4788 3.49426 3.68521 3.49426C3.89161 3.49426 4.06725 3.56669 4.21211 3.71156L20.789 20.2885C20.9275 20.4269 21.0009 20.5984 21.0092 20.8029C21.0175 21.0073 20.9441 21.1872 20.789 21.3423C20.6441 21.4872 20.4685 21.5596 20.2621 21.5596C20.0557 21.5596 19.8801 21.4872 19.7352 21.3423L16.216 17.8538C15.6262 18.082 15.0201 18.2468 14.3977 18.3481C13.7753 18.4493 13.1429 18.5 12.5006 18.5ZM6.45444 8.09229C5.86854 8.54485 5.34193 9.05672 4.87461 9.62789C4.4073 10.199 4.01595 10.8231 3.70056 11.5C4.5339 13.1833 5.73806 14.5208 7.31306 15.5125C8.88806 16.5042 10.6172 17 12.5006 17C12.9301 17 13.3528 16.9712 13.7689 16.9135C14.1849 16.8558 14.598 16.7667 15.0083 16.6462L13.7429 15.35C13.5403 15.4384 13.3381 15.4984 13.1361 15.5298C12.9342 15.5612 12.7224 15.5769 12.5006 15.5769C11.366 15.5769 10.4028 15.1811 9.61116 14.3894C8.8195 13.5977 8.42366 12.6346 8.42366 11.5C8.42366 11.2782 8.44097 11.0664 8.47559 10.8644C8.5102 10.6625 8.56854 10.4603 8.65059 10.2577L6.45444 8.09229Z" fill="#6A6A6A"/>
</svg>
